<?xml version="1.0" standalone="no"?>
<!DOCTYPE svg PUBLIC "-//W3C//DTD SVG 20010904//EN"
 "http://www.w3.org/TR/2001/REC-SVG-20010904/DTD/svg10.dtd">
<svg version="1.0" xmlns="http://www.w3.org/2000/svg"
 width="1280.000000pt" height="501.000000pt" viewBox="0 0 1280.000000 501.000000"
 preserveAspectRatio="xMidYMid meet">

<g transform="translate(0.000000,501.000000) scale(0.100000,-0.100000)"
fill="#000000" stroke="none">
<path d="M959 4851 c-48 -15 -71 -33 -84 -65 -22 -53 -3 -101 66 -168 41 -39
59 -64 59 -81 0 -28 -34 -68 -95 -112 -60 -43 -105 -87 -105 -102 0 -8 10 -27
21 -43 18 -24 21 -38 17 -86 -4 -50 -9 -61 -41 -90 -19 -18 -55 -38 -79 -44
-98 -27 -130 -42 -149 -74 -25 -41 -24 -88 2 -112 20 -18 22 -18 67 0 102 40
155 57 159 52 8 -8 -68 -43 -132 -61 -202 -59 -328 -194 -328 -354 0 -55 6
-79 38 -146 52 -111 95 -247 150 -475 74 -310 114 -445 178 -605 156 -393 341
-718 602 -1060 152 -199 191 -242 312 -347 382 -329 686 -499 1115 -622 203
-58 482 -98 918 -132 274 -21 534 -11 825 32 55 8 135 17 177 19 54 3 119 18
218 50 148 47 232 57 298 34 27 -9 39 -7 94 20 42 20 102 37 181 51 190 33
207 44 207 136 0 31 -6 46 -26 65 -25 24 -28 24 -182 21 -150 -3 -159 -2 -206
22 l-49 25 -28 -24 c-61 -51 -94 -52 -249 -10 -40 11 -80 14 -150 9 -144 -9
-159 12 -75 104 110 123 112 182 5 182 -63 0 -116 -34 -235 -152 l-110 -109
-45 6 c-77 11 -340 82 -442 118 -195 72 -322 136 -518 264 -207 136 -304 227
-520 486 -228 275 -313 417 -398 672 -101 301 -135 515 -177 1100 -28 391 -29
426 -8 465 37 71 83 73 257 15 58 -19 126 -38 150 -41 40 -6 116 10 116 23 0
4 -11 25 -25 49 -29 50 -99 104 -187 143 -94 43 -298 118 -339 125 -20 4 -78
33 -130 66 -51 33 -112 65 -134 71 -22 6 -46 13 -52 15 -7 2 -13 13 -13 24 0
60 -54 89 -209 115 -90 16 -169 44 -190 69 -6 7 -7 26 -1 50 10 44 -1 80 -25
90 -9 3 -69 6 -133 6 -173 0 -199 22 -170 142 17 70 11 108 -22 143 -35 37
-112 53 -171 36z m126 -52 c43 -52 32 -64 -60 -67 -44 -2 -84 -7 -88 -11 -5
-5 -3 -19 4 -32 11 -22 11 -23 -4 -10 -11 8 -17 28 -17 53 0 90 108 133 165
67z m15 -319 c0 -5 -8 -10 -17 -10 -15 0 -16 2 -3 10 19 12 20 12 20 0z m198
-6 c30 -9 28 -22 -5 -30 -16 -3 -35 -8 -43 -10 -8 -2 -22 1 -30 6 -13 9 -12
12 4 25 21 16 38 18 74 9z m40 -160 c67 -19 137 -57 146 -79 4 -13 2 -14 -14
-5 -34 18 -39 12 -33 -39 5 -43 3 -50 -14 -55 -64 -20 -173 91 -173 175 0 24
4 30 15 25 9 -3 41 -13 73 -22z m-98 -106 c17 -12 30 -25 30 -30 0 -4 -42 -6
-92 -5 -60 1 -104 -3 -125 -11 -17 -8 -40 -12 -50 -10 -13 3 -7 9 22 22 30 13
142 47 183 55 2 1 16 -9 32 -21z m415 -68 c3 -5 0 -19 -9 -31 -13 -19 -12 -25
17 -65 17 -24 28 -46 25 -50 -4 -3 -23 10 -45 29 l-38 35 -1 -50 c0 -36 -6
-55 -21 -70 -32 -31 -65 -17 -115 49 -24 32 -52 60 -62 61 -17 4 -18 -1 -14
-42 l5 -45 -24 19 c-61 48 -190 46 -366 -6 -92 -27 -97 -27 -97 -15 0 9 148
54 305 92 50 12 151 39 225 60 136 38 204 47 215 29z m655 -195 c9 -29 8 -41
-8 -77 -24 -54 -86 -111 -143 -131 -65 -22 -216 -64 -279 -76 -101 -20 -323
-50 -332 -45 -5 3 -40 0 -78 -6 -48 -8 -109 -32 -210 -81 -129 -63 -223 -99
-257 -99 -9 0 -11 8 -7 24 3 13 2 26 -3 29 -5 3 -43 0 -86 -6 -73 -10 -77 -12
-77 -37 0 -34 -17 -50 -52 -50 -60 0 -158 74 -158 119 0 27 26 61 47 61 7 0
13 5 13 10 0 6 -22 10 -49 10 -38 0 -53 -5 -74 -25 -33 -34 -51 -111 -43 -187
5 -54 4 -59 -10 -47 -29 24 -64 107 -64 151 0 75 49 126 158 163 37 13 86 26
110 30 l42 7 0 -42 c0 -53 29 -80 110 -105 48 -14 65 -16 85 -7 29 14 33 38 6
47 -10 3 -26 14 -36 24 -16 19 -15 20 10 34 l27 14 -30 12 c-17 7 -38 21 -48
32 -16 17 -15 19 7 28 13 6 69 20 125 31 55 11 207 51 336 89 365 107 542 138
800 140 l156 1 12 -35z m355 -144 c22 -12 31 -26 33 -49 4 -39 -2 -40 -37 -4
-16 15 -40 35 -55 45 -14 10 -24 23 -20 28 7 11 37 4 79 -20z m-502 -193 c29
-38 35 -173 14 -286 -15 -79 -15 -84 3 -102 10 -10 22 -40 26 -66 8 -53 0
-249 -12 -278 -5 -13 -4 -17 3 -13 24 15 36 -23 30 -96 -2 -39 -8 -80 -12 -89
-5 -12 -1 -17 17 -20 28 -4 34 -29 18 -69 -10 -24 -15 -27 -27 -18 -20 17 -31
2 -43 -60 -14 -77 -11 -92 9 -46 22 47 57 83 71 69 5 -5 18 -56 30 -114 27
-130 105 -406 125 -442 20 -35 19 -42 -9 -57 -22 -12 -46 -49 -46 -71 0 -6 11
-10 24 -10 35 0 81 -43 110 -103 25 -51 25 -51 26 -19 0 17 3 32 6 32 17 0
123 -127 172 -205 68 -110 122 -181 196 -259 47 -50 56 -64 51 -86 -13 -59
132 -202 283 -279 24 -12 95 -39 158 -60 111 -38 117 -41 193 -114 94 -90 155
-117 260 -117 63 0 69 -2 64 -19 -7 -26 27 -43 165 -79 152 -41 158 -46 102
-71 -59 -27 -89 -26 -190 4 -46 14 -93 25 -105 25 -12 0 -69 20 -125 45 -144
63 -221 85 -298 85 -56 0 -76 -5 -134 -35 -37 -20 -68 -31 -68 -26 0 5 4 12
10 16 5 3 19 19 31 36 20 28 20 30 3 21 -10 -6 -30 -22 -44 -37 -35 -37 -77
-58 -96 -47 -9 5 -32 31 -53 58 -38 50 -72 65 -107 46 -12 -7 -29 -2 -60 15
-47 26 -55 46 -26 62 16 10 16 10 0 11 -28 0 -30 18 -7 50 13 16 20 32 17 35
-2 3 -52 10 -109 15 -170 16 -240 45 -275 112 -26 50 -3 55 110 26 38 -9 38
-10 16 -21 -38 -19 -35 -36 12 -57 41 -19 176 -29 190 -14 4 3 -46 58 -110
123 -137 136 -186 166 -512 311 -195 87 -288 139 -262 148 20 6 103 -26 164
-63 62 -39 104 -51 143 -41 21 5 25 12 25 42 0 47 -19 82 -72 130 -30 28 -57
43 -84 47 -42 7 -65 21 -153 93 l-50 42 51 6 c33 5 58 15 74 31 28 28 30 45 8
90 -18 38 -154 186 -154 168 0 -6 13 -40 30 -75 29 -62 39 -108 21 -108 -14 0
-27 21 -46 75 -22 60 -49 93 -92 111 -46 20 -53 18 -53 -14 0 -16 -7 -37 -14
-48 -14 -18 -15 -18 -26 13 -11 31 -14 33 -58 30 -42 -2 -47 1 -65 32 -11 19
-20 49 -19 69 2 49 -31 114 -74 147 -46 35 -104 93 -104 104 0 5 18 0 39 -11
47 -23 109 -21 125 4 14 22 -9 66 -69 134 l-43 49 -51 -48 c-76 -71 -87 -64
-84 56 l3 98 -31 -22 -31 -22 7 -74 7 -75 -38 4 c-24 2 -39 -2 -42 -10 -2 -7
38 -52 89 -101 85 -80 90 -88 62 -84 -22 4 -34 0 -44 -14 -37 -51 -71 -35 -94
44 -31 105 -85 173 -140 173 -15 0 -13 4 9 25 14 13 26 29 26 36 0 14 -60 72
-100 96 -17 9 -30 20 -30 23 1 15 104 120 120 120 18 0 90 -72 90 -90 0 -6 -9
-10 -20 -10 -12 0 -25 -10 -32 -25 -21 -46 38 -156 77 -142 20 8 21 172 1 221
-24 58 -131 121 -161 96 -22 -19 -66 16 -82 63 -15 46 -8 67 23 67 18 0 24 6
24 21 0 35 53 79 97 80 59 2 82 11 103 44 l19 31 -39 83 c-21 46 -36 91 -33
100 13 34 24 40 71 34 56 -6 117 8 162 39 49 34 60 56 35 74 -18 14 -14 15 47
9 62 -7 68 -5 91 17 13 13 26 30 29 38 3 11 17 10 79 -4 40 -9 82 -19 91 -21
33 -6 27 11 -13 35 -21 14 -39 28 -39 31 0 11 143 48 222 58 42 5 87 16 100
25 33 24 77 16 101 -16z m-899 -203 c-4 -8 -10 -12 -15 -9 -14 8 -10 24 6 24
9 0 12 -6 9 -15z m-614 -34 c0 -5 -6 -13 -13 -19 -15 -13 -42 1 -33 17 8 13
46 15 46 2z m431 -111 c45 0 83 -28 73 -53 -14 -38 -93 -59 -135 -37 -32 17
-22 29 29 32 l47 3 -62 24 c-70 26 -84 47 -25 37 20 -3 53 -6 73 -6z m-193
-82 c2 -11 -6 -22 -23 -30 -22 -10 -29 -9 -48 11 -19 19 -20 23 -7 31 24 16
74 8 78 -12z m82 -57 c0 -18 -17 -20 -36 -6 -18 14 -18 14 9 15 15 0 27 -4 27
-9z m-70 -41 c0 -21 -15 -27 -25 -10 -7 12 2 30 16 30 5 0 9 -9 9 -20z m-37
-111 c36 -10 50 -33 25 -42 -16 -5 -88 30 -88 43 0 13 16 13 63 -1z m-189 -91
c16 -23 22 -58 9 -58 -16 0 -43 35 -43 57 0 29 14 30 34 1z m184 6 c12 -8 22
-22 22 -30 0 -18 -40 -18 -65 0 -16 12 -17 16 -6 30 17 20 21 20 49 0z m-27
-74 c25 -14 25 -30 -1 -23 -24 6 -49 33 -31 33 7 0 21 -5 32 -10z m-81 -150
c66 -132 90 -217 58 -212 -14 2 -13 -4 8 -42 13 -24 38 -83 54 -131 16 -47 39
-102 51 -121 30 -49 18 -52 -24 -5 -37 41 -91 139 -127 232 -11 28 -40 92 -65
142 -47 99 -63 147 -47 147 11 0 50 -55 81 -115 19 -36 20 -37 15 -10 -4 17
-15 50 -24 75 -43 112 -30 138 20 40z m293 -157 c-7 -2 -19 -2 -25 0 -7 3 -2
5 12 5 14 0 19 -2 13 -5z m77 -113 c0 -12 -45 -24 -59 -15 -22 13 -10 25 24
25 19 0 35 -4 35 -10z m248 -24 c3 -12 -1 -17 -10 -14 -7 3 -15 13 -16 22 -3
12 1 17 10 14 7 -3 15 -13 16 -22z m162 4 c0 -5 -7 -7 -15 -4 -8 4 -15 8 -15
10 0 2 7 4 15 4 8 0 15 -4 15 -10z m-26 -142 c7 -13 22 -59 31 -103 14 -64 23
-85 49 -110 41 -38 76 -89 76 -109 0 -28 -36 -18 -152 43 -62 32 -134 66 -160
76 -39 14 -51 26 -73 66 -50 96 -26 111 90 59 67 -30 119 -38 130 -21 3 6 -4
34 -15 63 -24 63 -23 58 -5 58 8 0 21 -10 29 -22z m-651 -77 c20 -32 55 -99
76 -148 42 -99 66 -137 165 -258 36 -44 71 -96 77 -116 7 -22 23 -43 40 -53
44 -26 77 -76 108 -163 15 -43 33 -88 39 -100 17 -31 61 -63 87 -63 25 0 41
-16 78 -81 32 -57 80 -99 112 -99 17 0 22 -4 18 -18 -6 -23 106 -142 134 -142
44 0 163 -99 163 -136 0 -20 -40 -18 -107 8 -45 16 -75 38 -134 97 -41 42
-107 101 -146 133 -39 31 -96 87 -126 125 -79 98 -188 274 -181 295 2 9 0 19
-5 23 -7 4 -8 -1 -4 -12 10 -31 -261 377 -315 472 -42 74 -132 272 -132 290 0
17 20 -3 53 -54z m417 -151 c0 -5 -7 -10 -15 -10 -8 0 -15 5 -15 10 0 6 7 10
15 10 8 0 15 -4 15 -10z m24 -169 c11 -12 17 -23 15 -26 -7 -6 -69 45 -69 56
0 13 30 -4 54 -30z m620 13 c23 -23 20 -37 -6 -28 -46 13 -65 44 -29 44 11 0
27 -7 35 -16z m-207 -40 c51 -15 93 -30 93 -34 0 -4 -18 -15 -40 -25 -48 -22
-50 -38 -9 -62 l31 -18 -44 -5 -43 -5 51 -35 c30 -20 49 -41 46 -48 -2 -8 15
-33 38 -57 30 -31 41 -49 37 -63 -3 -14 5 -29 24 -48 48 -46 33 -48 -43 -6
-40 22 -120 64 -177 95 -58 31 -109 61 -115 67 -22 22 7 23 50 1 26 -12 48
-20 51 -18 2 3 -26 29 -63 58 -60 47 -65 54 -45 59 21 5 20 7 -19 45 -48 47
-50 56 -9 48 29 -5 30 -5 23 22 -5 22 -4 27 7 23 8 -3 25 -9 39 -13 23 -7 23
-7 7 9 -43 43 -16 45 110 10z m-280 -67 c13 -11 21 -22 19 -25 -7 -6 -86 40
-86 51 0 13 42 -3 67 -26z m-151 -69 c28 -30 17 -30 -18 0 -16 13 -24 32 -15
32 2 0 16 -14 33 -32z m839 -208 c3 -5 -1 -10 -9 -10 -9 0 -16 5 -16 10 0 6 4
10 9 10 6 0 13 -4 16 -10z m95 -55 c10 -12 10 -15 -4 -15 -9 0 -16 7 -16 15 0
8 2 15 4 15 2 0 9 -7 16 -15z m-451 -51 c33 -7 43 -24 14 -24 -20 1 -74 29
-57 30 6 0 26 -3 43 -6z m296 -35 c58 -27 69 -44 24 -34 -51 11 -73 21 -88 39
-20 23 8 21 64 -5z m-315 -9 c0 -5 -4 -10 -9 -10 -6 0 -13 5 -16 10 -3 6 1 10
9 10 9 0 16 -4 16 -10z m145 -5 c30 -13 30 -13 4 -14 -14 -1 -34 6 -45 14 -25
19 -1 19 41 0z m75 -79 c133 -48 130 -47 130 -61 0 -34 -143 -46 -215 -19 -22
9 -50 18 -61 21 -34 8 -88 68 -80 89 10 26 110 13 226 -30z m186 1 c16 -7 45
-21 64 -32 19 -11 55 -27 78 -35 24 -8 44 -19 43 -25 -1 -17 -49 -17 -96 -2
-42 15 -143 84 -144 100 -1 11 23 9 55 -6z m198 -6 c21 -11 52 -23 69 -26 55
-11 67 -16 67 -27 0 -28 -210 25 -254 64 -20 17 81 7 118 -11z m730 -86 c3 -9
-1 -18 -10 -22 -19 -7 -28 2 -21 22 8 19 23 19 31 0z m-749 -66 c30 -11 55
-25 55 -30 0 -24 -93 3 -119 34 -18 22 -4 22 64 -4z m-405 1 c13 -9 13 -10 0
-10 -8 0 -22 5 -30 10 -13 9 -13 10 0 10 8 0 22 -5 30 -10z m220 -10 c0 -5 -7
-7 -15 -4 -8 4 -15 8 -15 10 0 2 7 4 15 4 8 0 15 -4 15 -10z m1040 -30 c0 -5
-6 -10 -14 -10 -8 0 -18 5 -21 10 -3 6 3 10 14 10 12 0 21 -4 21 -10z m-839
-97 c60 -30 69 -38 50 -41 -43 -7 -151 44 -151 70 0 16 28 8 101 -29z m99 13
c0 -9 -7 -12 -20 -9 -31 8 -34 23 -6 23 16 0 26 -6 26 -14z m-240 -26 c0 -13
-30 -13 -50 0 -11 7 -7 10 18 10 17 0 32 -4 32 -10z m2530 -100 c0 -19 -11
-26 -23 -14 -8 8 3 34 14 34 5 0 9 -9 9 -20z m-2564 -35 c-22 -17 -56 -20 -56
-6 0 12 19 19 50 20 24 0 24 0 6 -14z m258 6 c3 -5 0 -11 -8 -14 -18 -7 -56 3
-56 14 0 12 57 12 64 0z m126 -36 c10 -12 9 -16 -2 -20 -20 -8 -71 13 -63 25
9 15 51 12 65 -5z m314 -24 c8 -12 -39 -30 -63 -24 -41 10 -19 27 41 32 9 0
19 -3 22 -8z m-604 -5 c0 -3 -4 -8 -10 -11 -5 -3 -10 -1 -10 4 0 6 5 11 10 11
6 0 10 -2 10 -4z m2250 -21 c0 -8 -9 -15 -20 -15 -20 0 -26 11 -13 23 12 13
33 7 33 -8z m-2385 -15 c3 -5 -1 -10 -9 -10 -9 0 -16 5 -16 10 0 6 4 10 9 10
6 0 13 -4 16 -10z m668 -37 c-13 -2 -33 -2 -45 0 -13 2 -3 4 22 4 25 0 35 -2
23 -4z m-563 -13 c0 -5 -4 -10 -10 -10 -5 0 -10 5 -10 10 0 6 5 10 10 10 6 0
10 -4 10 -10z m20 -51 c107 -59 228 -112 470 -209 l245 -99 190 -27 c156 -22
214 -25 322 -21 94 3 147 0 185 -9 38 -10 104 -14 228 -12 132 2 182 -1 205
-11 l30 -14 -40 -9 c-75 -16 -387 -21 -521 -9 -211 19 -682 90 -782 117 -177
47 -460 163 -597 245 -76 45 -108 69 -89 69 3 0 57 -27 118 -59 110 -59 265
-126 273 -118 5 6 -36 31 -77 47 -50 19 -230 117 -260 141 l-25 21 35 -6 c19
-4 60 -20 90 -37z m134 25 c17 -7 10 -34 -9 -34 -17 0 -28 17 -20 30 7 12 8
12 29 4z m1190 -70 c3 -9 6 -31 6 -49 0 -26 -7 -39 -29 -54 -37 -27 -39 -26
-51 5 l-10 26 -34 -22 c-71 -43 -51 27 22 78 50 35 86 41 96 16z m-144 -10
c-17 -19 -50 -37 -50 -27 0 7 48 42 59 43 2 0 -2 -7 -9 -16z m280 -28 c0 -13
-75 -76 -91 -76 -14 0 -19 33 -7 48 14 16 65 41 86 42 6 0 12 -6 12 -14z m968
-3 c78 -10 142 -20 142 -24 0 -14 -51 -31 -101 -32 -92 -2 -389 16 -389 23 0
9 31 36 50 43 30 11 159 7 298 -10z m512 -8 c0 -8 -7 -15 -15 -15 -9 0 -12 6
-9 15 4 8 10 15 15 15 5 0 9 -7 9 -15z m-250 -20 c0 -8 -7 -15 -15 -15 -8 0
-15 7 -15 15 0 8 7 15 15 15 8 0 15 -7 15 -15z m594 5 c-11 -11 -200 -30 -224
-23 -42 13 -43 17 -10 23 56 12 245 11 234 0z m-2899 -20 c8 -13 -20 -24 -41
-16 -20 8 -9 26 16 26 10 0 22 -5 25 -10z m1185 -7 c0 -12 -43 -53 -57 -53
-21 0 -15 17 13 39 27 21 44 27 44 14z m-647 -28 c0 -6 -7 -11 -16 -13 -12 -3
-15 1 -11 13 7 17 25 17 27 0z m527 7 c0 -18 -33 -52 -51 -52 -26 0 -24 25 3
44 24 17 48 21 48 8z m221 -43 c-21 -17 -51 -26 -51 -15 0 8 65 45 70 40 3 -3
-6 -14 -19 -25z m-1014 -9 c182 -40 208 -47 223 -65 11 -13 8 -15 -13 -15 -57
0 -228 40 -298 70 -120 51 -107 52 88 10z m927 -11 c-13 -14 -21 -16 -28 -9
-8 8 -4 17 14 32 30 24 41 7 14 -23z m152 -4 c-43 -38 -56 -43 -56 -21 0 20
48 56 74 56 18 -1 16 -6 -18 -35z m-326 -25 c0 -5 -5 -10 -11 -10 -5 0 -7 5
-4 10 3 6 8 10 11 10 2 0 4 -4 4 -10z m571 -145 c0 -13 -41 -19 -41 -7 0 11
20 22 33 18 5 -1 8 -6 8 -11z"/>
<path d="M1860 3931 c-15 -30 -12 -78 6 -85 9 -3 31 -6 49 -6 51 0 56 38 12
88 -25 27 -53 28 -67 3z"/>
<path d="M2037 3919 c-21 -12 -49 -64 -40 -73 4 -4 12 3 19 15 6 12 26 27 44
33 17 6 33 16 33 21 3 14 -34 17 -56 4z"/>
<path d="M1455 3826 c-57 -14 -95 -32 -95 -46 0 -14 12 -12 56 6 28 12 54 14
94 10 33 -4 69 -2 88 5 91 32 -29 53 -143 25z"/>
<path d="M1327 3763 c-4 -3 -7 -11 -7 -17 0 -6 5 -5 12 2 6 6 9 14 7 17 -3 3
-9 2 -12 -2z"/>
<path d="M1192 3718 c-20 -20 15 -48 60 -48 44 0 51 20 16 44 -27 19 -59 21
-76 4z"/>
<path d="M1095 3709 c-12 -19 5 -23 22 -6 16 16 16 17 1 17 -9 0 -20 -5 -23
-11z"/>
<path d="M1102 3654 c-12 -8 -22 -21 -22 -27 1 -12 125 -77 148 -77 35 0 -16
78 -69 105 -34 18 -30 18 -57 -1z"/>
<path d="M2070 3415 c-49 -59 -53 -255 -5 -255 35 0 91 126 83 187 -3 23 -7
18 -22 -32 -10 -33 -22 -64 -27 -69 -13 -14 -11 65 2 103 11 32 5 81 -10 81
-5 0 -14 -7 -21 -15z"/>
<path d="M1430 3177 c5 -16 10 -43 10 -61 0 -35 12 -49 73 -85 47 -28 69 -23
36 8 -16 16 -20 25 -11 28 23 9 12 29 -28 52 -21 12 -51 36 -65 54 l-26 32 11
-28z"/>
<path d="M1551 3186 c-11 -13 -11 -19 -1 -31 29 -35 54 -8 27 29 -12 16 -14
16 -26 2z"/>
<path d="M1370 3017 c0 -4 21 -13 48 -21 26 -8 62 -22 79 -31 18 -9 47 -20 64
-25 51 -15 18 13 -52 45 -58 26 -139 44 -139 32z"/>
<path d="M1320 2992 c0 -9 39 -82 44 -82 0 0 39 -13 86 -30 110 -39 125 -38
75 6 -77 68 -205 134 -205 106z"/>
<path d="M2000 2984 c0 -6 7 -19 16 -30 14 -18 14 -18 3 6 -14 31 -19 36 -19
24z"/>
<path d="M1240 2931 c0 -4 24 -31 54 -60 42 -38 62 -51 85 -51 17 0 31 4 31 9
0 12 -65 63 -115 90 -43 23 -55 26 -55 12z"/>
<path d="M1238 2852 c12 -16 22 -37 22 -46 0 -13 -8 -11 -40 10 -22 15 -43 24
-46 21 -10 -10 99 -127 125 -134 29 -7 51 17 51 58 0 34 -22 59 -84 94 l-49
28 21 -31z"/>
<path d="M1386 2751 c-4 -7 -5 -15 -2 -18 9 -9 19 4 14 18 -4 11 -6 11 -12 0z"/>
<path d="M1440 2754 c0 -17 28 -49 36 -41 4 4 -2 17 -14 30 -12 12 -22 17 -22
11z"/>
<path d="M2128 2721 c-11 -49 -10 -67 3 -54 6 6 9 28 7 49 l-3 39 -7 -34z"/>
<path d="M1950 2714 c-7 -16 -10 -65 -8 -109 3 -74 6 -85 41 -138 31 -47 41
-56 53 -46 19 16 29 78 15 100 -6 11 -11 43 -11 73 0 49 -2 55 -22 58 -16 2
-24 12 -29 36 -10 51 -26 61 -39 26z"/>
<path d="M1838 2705 c2 -14 6 -25 8 -25 2 0 4 11 4 25 0 14 -4 25 -9 25 -4 0
-6 -11 -3 -25z"/>
<path d="M2166 2699 c-3 -17 -6 -46 -5 -63 1 -30 1 -30 8 -6 16 50 22 100 13
100 -5 0 -12 -14 -16 -31z"/>
<path d="M1540 2664 c0 -67 59 -222 99 -258 20 -18 22 -18 39 -3 23 21 31 21
54 0 17 -15 18 -15 12 14 -4 22 -2 32 10 36 27 11 18 33 -45 112 -60 74 -104
113 -115 102 -3 -2 6 -31 19 -63 14 -33 28 -70 31 -84 7 -25 7 -25 -10 -5 -9
11 -34 56 -55 100 -33 69 -38 76 -39 49z"/>
<path d="M1395 2618 c-4 -10 -4 -26 0 -35 8 -17 8 -17 12 0 3 9 3 25 0 35 -4
16 -4 16 -12 0z"/>
<path d="M1497 2566 c-6 -15 19 -56 34 -56 13 0 11 44 -3 58 -16 16 -25 15
-31 -2z"/>
<path d="M2244 2329 c-3 -6 -1 -16 5 -22 8 -8 11 -5 11 11 0 24 -5 28 -16 11z"/>
<path d="M1720 2116 c0 -8 5 -18 10 -21 6 -3 10 1 10 9 0 8 -4 18 -10 21 -5 3
-10 -1 -10 -9z"/>
<path d="M1910 2101 c0 -5 5 -13 10 -16 6 -3 10 -2 10 4 0 5 -4 13 -10 16 -5
3 -10 2 -10 -4z"/>
<path d="M2310 2036 c0 -40 28 -102 41 -89 15 15 1 78 -22 99 -18 16 -19 16
-19 -10z"/>
<path d="M2404 1767 c-4 -10 -2 -23 3 -28 14 -14 24 13 13 32 -7 11 -10 10
-16 -4z"/>
<path d="M2560 1573 c0 -22 24 -53 41 -53 16 0 10 18 -16 47 -23 27 -24 27
-25 6z"/>
<path d="M2651 1434 c0 -11 3 -14 6 -6 3 7 2 16 -1 19 -3 4 -6 -2 -5 -13z"/>
<path d="M2700 1369 c0 -28 45 -103 78 -133 22 -19 22 -19 22 5 0 28 -45 103
-78 133 -22 19 -22 19 -22 -5z"/>
<path d="M10839 4689 c-109 -67 -197 -111 -284 -144 -77 -29 -115 -58 -115
-89 0 -33 11 -42 90 -79 42 -19 93 -49 113 -67 70 -61 68 -17 65 -1131 l-3
-994 -22 -40 c-22 -42 -32 -49 -121 -86 -57 -24 -72 -42 -72 -87 0 -62 11 -63
353 -43 130 8 295 12 366 9 71 -3 135 -1 144 4 22 12 22 71 1 92 -17 18 -27
21 -141 40 -158 27 -173 46 -184 250 -10 169 -3 206 51 257 53 50 143 94 167
81 10 -6 50 -62 90 -124 136 -217 419 -572 487 -613 27 -17 45 -17 260 -6 267
14 306 22 319 67 7 22 5 40 -5 60 -13 28 -17 29 -103 36 -129 11 -206 51 -332
171 -168 161 -456 547 -469 629 -6 33 -2 38 74 108 145 131 285 220 417 265
28 9 93 22 145 29 52 7 105 18 116 24 38 20 45 66 16 101 -17 22 -25 22 -402
32 -212 5 -401 12 -420 15 -48 7 -74 -13 -74 -60 0 -49 18 -64 92 -77 78 -14
128 -46 124 -80 -3 -31 -29 -57 -207 -208 -285 -242 -334 -272 -349 -218 -3
12 -6 439 -6 948 0 922 0 926 -21 953 -30 39 -64 33 -160 -25z"/>
<path d="M6442 4719 c-13 -5 -70 -36 -126 -69 -78 -46 -303 -150 -323 -150 -1
0 -10 -14 -18 -31 -15 -27 -15 -33 -1 -54 8 -13 41 -35 73 -50 85 -39 122 -71
152 -134 l26 -56 3 -995 2 -995 -22 -45 c-20 -39 -34 -50 -103 -85 -76 -38
-80 -42 -83 -76 -5 -56 18 -73 87 -64 31 4 213 9 404 11 248 2 353 6 363 15
20 17 18 73 -5 93 -10 9 -43 21 -73 26 -140 22 -191 50 -228 125 l-25 50 -2
1230 -2 1230 -21 17 c-24 20 -43 21 -78 7z"/>
<path d="M3851 4502 c-29 -55 -7 -88 97 -142 77 -41 135 -104 153 -167 12 -39
14 -217 14 -988 0 -885 -1 -943 -18 -1000 -22 -69 -84 -140 -132 -150 -115
-24 -140 -46 -113 -101 15 -33 -12 -32 328 -19 136 5 269 4 396 -4 217 -14
268 -8 284 35 12 30 -2 69 -27 78 -10 4 -69 16 -132 27 -140 24 -193 46 -218
91 -17 30 -18 70 -21 488 -2 250 0 465 3 478 5 21 9 22 143 22 185 0 354 -15
391 -34 50 -26 84 -79 121 -188 29 -86 39 -104 61 -112 18 -6 35 -4 55 5 l29
14 1 235 c2 210 22 462 40 491 20 33 -66 78 -112 57 -26 -12 -36 -39 -54 -141
-14 -79 -38 -113 -88 -127 -40 -10 -356 -30 -489 -30 -71 0 -84 3 -93 19 -13
26 -14 910 0 945 16 44 64 49 370 43 285 -7 369 -16 430 -47 53 -27 104 -88
146 -177 20 -43 46 -88 57 -100 25 -28 82 -31 95 -5 5 9 13 76 16 147 4 72 14
181 22 243 9 62 13 116 9 120 -9 9 -75 9 -625 -7 -387 -11 -525 -12 -745 -2
-148 7 -296 15 -327 18 -49 4 -58 2 -67 -15z"/>
<path d="M9472 3490 c-151 -23 -284 -94 -355 -186 -108 -141 -102 -377 12
-507 59 -66 142 -115 441 -260 223 -108 280 -164 280 -274 0 -69 -33 -120 -95
-152 -46 -24 -59 -26 -185 -26 -115 0 -145 3 -200 23 -90 31 -167 87 -223 163
-26 35 -56 74 -67 87 -24 28 -75 30 -90 3 -11 -21 -14 -300 -4 -338 18 -66
436 -137 658 -113 162 18 280 65 366 146 127 119 163 321 87 488 -51 111 -143
180 -385 290 -335 153 -380 183 -401 273 -23 94 16 164 109 199 70 26 220 23
293 -5 71 -28 144 -85 197 -154 72 -92 77 -97 109 -97 36 0 81 19 81 34 0 6
-14 85 -32 175 -27 137 -36 166 -54 178 -63 41 -408 75 -542 53z"/>
<path d="M7860 3484 c-210 -38 -427 -136 -542 -244 -55 -53 -58 -58 -58 -103
0 -55 20 -101 52 -118 34 -18 129 -14 179 8 55 25 101 71 141 143 73 127 114
157 205 146 139 -16 213 -89 232 -228 9 -72 3 -234 -11 -260 -15 -29 -77 -54
-192 -78 -170 -34 -301 -76 -422 -135 -128 -62 -205 -126 -249 -207 -27 -47
-30 -62 -29 -138 1 -108 27 -180 92 -249 86 -92 221 -132 373 -111 106 15 158
31 300 95 66 30 128 55 138 55 9 0 41 -25 71 -56 75 -76 100 -88 177 -81 70 5
171 48 277 118 74 48 90 70 81 110 -10 45 -32 51 -134 38 -72 -10 -95 -10
-121 1 -61 25 -62 29 -58 559 3 455 2 478 -17 531 -28 77 -111 159 -185 184
-54 18 -242 30 -300 20z m200 -859 c9 -11 12 -68 11 -207 l-1 -193 -34 -32
c-54 -50 -157 -78 -286 -78 -96 0 -109 2 -152 27 -61 36 -92 98 -92 183 1 70
16 105 71 156 68 64 134 94 288 135 106 27 177 31 195 9z"/>
<path d="M7578 1559 c-35 -18 -50 -39 -29 -39 5 0 17 -7 25 -16 14 -13 16 -48
16 -228 l0 -213 45 -13 c134 -37 245 37 245 163 0 34 -6 53 -26 76 -43 52
-103 60 -186 26 -17 -7 -18 3 -18 129 0 153 0 153 -72 115z m215 -300 c31 -34
37 -91 12 -138 -17 -33 -33 -41 -83 -41 -59 0 -72 21 -72 112 l0 79 33 14 c42
19 76 11 110 -26z"/>
<path d="M8373 1560 c-49 -22 -53 -32 -18 -48 24 -11 25 -16 25 -94 l0 -83
-66 3 c-70 4 -108 -13 -147 -64 -58 -77 -18 -208 72 -235 32 -10 45 -8 90 12
54 23 61 21 74 -16 2 -6 24 0 51 13 49 23 53 42 10 42 l-24 0 0 245 c0 190 -3
245 -12 244 -7 0 -32 -9 -55 -19z m-15 -276 c20 -13 22 -22 22 -93 0 -87 -6
-98 -62 -107 -104 -17 -161 177 -63 217 24 10 72 2 103 -17z"/>
<path d="M9688 1561 c-53 -25 -54 -28 -25 -55 l27 -25 0 -200 c0 -190 -1 -201
-20 -211 -39 -21 -19 -30 65 -30 47 0 85 4 85 8 0 5 -15 15 -32 23 l-33 14 -3
248 c-2 188 -5 247 -15 246 -6 0 -29 -8 -49 -18z"/>
<path d="M12121 1362 c-43 -46 -44 -46 -22 -60 19 -13 21 -23 21 -118 0 -125
11 -144 86 -144 88 0 116 37 32 42 l-53 3 -3 107 -3 107 48 3 c36 2 49 7 51
21 3 14 -4 17 -47 17 -50 0 -51 1 -51 29 0 17 -3 32 -7 34 -5 3 -28 -16 -52
-41z"/>
<path d="M7315 1335 c-49 -18 -81 -53 -95 -107 -16 -56 -5 -103 33 -145 26
-28 42 -36 79 -40 51 -6 104 8 142 38 38 30 22 41 -27 19 -59 -27 -99 -25
-130 5 -52 53 -46 62 69 97 57 17 104 36 104 41 0 27 -44 76 -80 91 -48 19
-44 19 -95 1z m77 -42 c36 -33 20 -53 -59 -76 l-53 -16 0 28 c0 64 69 103 112
64z"/>
<path d="M8645 1335 c-49 -18 -81 -53 -95 -107 -16 -56 -5 -103 33 -145 26
-28 42 -36 79 -40 51 -6 104 8 142 38 38 30 22 41 -27 19 -59 -27 -99 -25
-130 5 -52 53 -46 62 69 97 57 17 104 36 104 41 0 27 -44 76 -80 91 -48 19
-44 19 -95 1z m77 -42 c36 -33 20 -53 -59 -76 l-53 -16 0 28 c0 64 69 103 112
64z"/>
<path d="M9412 1340 c-66 -15 -112 -80 -112 -157 0 -88 55 -143 142 -143 51 0
131 37 136 62 3 15 -1 15 -48 -3 -27 -10 -61 -19 -75 -19 -31 0 -74 38 -77 69
-3 21 5 26 91 51 52 16 98 33 104 39 7 7 1 22 -17 45 -40 53 -84 70 -144 56z
m62 -46 c32 -31 20 -51 -43 -72 -33 -11 -62 -18 -64 -16 -7 8 10 73 23 89 16
20 64 19 84 -1z"/>
<path d="M10272 1334 l-34 -15 26 -24 26 -24 0 -187 c0 -179 -1 -189 -22 -211
l-21 -23 87 0 c66 0 87 3 84 13 -3 6 -13 14 -24 16 -37 7 -44 22 -44 95 l0 71
61 -3 c51 -3 66 0 98 21 46 31 71 80 71 142 0 57 -21 100 -60 120 -36 19 -97
19 -130 0 -34 -20 -47 -18 -53 5 -6 23 -19 24 -65 4z m207 -55 c52 -48 56
-159 7 -191 -16 -11 -95 -10 -117 2 -16 9 -19 22 -19 86 0 66 3 78 25 99 30
31 73 32 104 4z"/>
<path d="M11422 1340 c-66 -15 -112 -80 -112 -157 0 -88 55 -143 142 -143 52
0 132 37 136 63 4 17 2 17 -27 3 -17 -9 -50 -19 -74 -22 -36 -5 -48 -2 -70 17
-15 13 -28 35 -29 48 -3 21 5 26 91 51 52 16 98 33 104 39 7 7 1 22 -17 45
-40 53 -84 70 -144 56z m62 -46 c32 -31 20 -51 -43 -72 -33 -11 -62 -18 -64
-16 -7 8 10 73 23 89 16 20 64 19 84 -1z"/>
<path d="M6678 1333 c-65 -4 -87 -16 -50 -27 9 -3 48 -64 87 -136 38 -71 72
-130 76 -130 4 0 28 37 52 82 l45 83 43 -88 c23 -48 45 -87 48 -87 4 0 34 55
66 123 33 67 72 134 88 149 l27 26 -70 4 c-38 2 -70 0 -70 -3 0 -4 10 -13 22
-21 l22 -15 -27 -71 c-41 -104 -48 -106 -86 -17 -36 87 -38 101 -11 110 42 13
17 25 -55 25 -70 0 -97 -12 -60 -27 9 -3 22 -18 31 -34 13 -27 13 -32 -16 -89
-17 -33 -32 -60 -35 -60 -8 0 -75 138 -75 154 0 9 9 20 20 26 18 10 20 33 2
28 -4 -1 -37 -3 -74 -5z"/>
<path d="M8948 1333 c-65 -4 -86 -14 -53 -26 8 -4 28 -34 46 -69 39 -79 111
-198 120 -198 12 0 26 23 84 135 31 61 66 118 77 128 12 10 19 19 17 21 -8 7
-119 12 -119 6 0 -4 7 -13 15 -20 22 -18 18 -37 -24 -119 l-38 -75 -41 75
c-47 84 -51 104 -22 119 19 10 29 32 13 28 -5 -1 -38 -3 -75 -5z"/>
<path d="M9946 1317 c-52 -30 -77 -65 -83 -120 -7 -58 25 -119 75 -143 49 -23
138 -15 181 16 69 49 88 153 38 216 -44 56 -142 71 -211 31z m139 -43 c28 -30
40 -79 31 -128 -11 -57 -65 -87 -119 -67 -65 25 -91 147 -42 196 35 35 97 35
130 -1z"/>
<path d="M10681 1317 l-34 -20 27 -20 c25 -18 26 -23 26 -114 0 -86 -2 -95
-20 -100 -11 -3 -20 -9 -20 -14 0 -11 153 -12 164 -2 4 4 -8 14 -26 23 l-33
15 -3 87 -3 87 30 16 c17 8 46 15 65 15 53 0 66 -26 66 -132 0 -78 -2 -87 -20
-93 -43 -14 -16 -25 60 -25 84 0 100 8 50 27 l-30 11 0 91 c0 82 2 91 22 105
23 17 94 21 115 8 20 -13 33 -61 33 -125 0 -66 -5 -80 -32 -90 -43 -15 -14
-27 67 -27 88 0 107 10 55 29 -30 10 -30 11 -30 83 -1 94 -14 149 -41 171 -29
24 -109 22 -158 -3 -38 -19 -39 -19 -56 0 -25 28 -108 27 -154 -1 -27 -16 -36
-18 -42 -7 -5 7 -9 16 -9 21 0 13 -34 6 -69 -16z"/>
<path d="M11688 1317 c-21 -12 -38 -25 -38 -28 0 -3 11 -11 25 -17 24 -11 25
-15 25 -101 0 -80 -3 -93 -22 -111 l-22 -20 82 0 c85 0 101 10 55 32 -27 13
-28 16 -31 100 l-3 87 30 16 c43 22 94 19 117 -6 14 -16 20 -40 22 -99 4 -69
2 -80 -17 -99 -12 -12 -21 -23 -21 -26 0 -3 36 -5 80 -5 84 0 100 8 52 26 -25
9 -30 18 -35 59 -4 26 -7 74 -7 107 0 49 -4 63 -25 83 -30 31 -91 33 -152 5
-42 -18 -42 -18 -48 1 -8 24 -21 23 -67 -4z"/>
<path d="M12388 1119 c-26 -14 -22 -52 7 -79 33 -31 32 -50 -5 -85 -32 -31
-38 -45 -17 -45 22 0 77 65 88 104 13 46 3 93 -21 106 -23 12 -30 12 -52 -1z"/>
<path d="M8253 859 c-50 -23 -53 -31 -18 -47 24 -11 25 -16 25 -94 l0 -83 -74
0 c-69 0 -77 -2 -106 -30 -48 -46 -63 -81 -58 -137 6 -58 31 -95 81 -123 38
-21 43 -20 153 22 6 2 14 -6 17 -18 5 -18 10 -20 34 -15 39 10 75 35 68 47 -4
5 -12 9 -18 8 -37 -4 -37 -4 -37 246 0 190 -3 245 -12 244 -7 0 -32 -9 -55
-20z m-14 -278 c19 -10 21 -20 21 -90 0 -87 -7 -98 -62 -107 -65 -11 -127 71
-113 150 14 70 75 89 154 47z"/>
<path d="M11386 804 c-22 -22 -20 -51 5 -64 38 -21 78 37 47 68 -16 16 -33 15
-52 -4z"/>
<path d="M10092 664 c-45 -48 -50 -59 -28 -67 11 -4 15 -32 18 -111 3 -94 5
-108 26 -128 17 -18 33 -23 66 -21 47 2 86 17 86 34 0 7 -14 8 -39 4 -32 -5
-43 -3 -61 15 -19 19 -20 30 -18 113 l3 92 50 5 c37 4 51 9 53 23 3 14 -4 17
-47 17 -50 0 -51 1 -51 29 0 17 -4 32 -8 35 -4 2 -27 -16 -50 -40z"/>
<path d="M11092 665 c-45 -46 -50 -60 -28 -68 11 -4 15 -32 18 -111 3 -94 6
-108 26 -128 25 -26 87 -29 128 -8 37 20 29 33 -15 25 -32 -5 -43 -3 -61 15
-19 19 -20 30 -18 113 l3 92 45 3 c40 3 59 14 60 35 0 4 -22 7 -50 7 -49 0
-50 1 -50 29 0 17 -3 32 -8 35 -4 2 -27 -15 -50 -39z"/>
<path d="M9133 634 c-38 -16 -41 -24 -13 -42 19 -11 20 -23 20 -212 0 -190 -1
-200 -20 -210 -11 -6 -19 -14 -16 -18 6 -10 176 -3 176 7 0 4 -18 15 -40 24
l-40 15 0 73 0 72 44 -6 c59 -8 106 7 143 45 54 56 68 129 38 189 -32 60 -118
87 -175 54 -34 -20 -48 -18 -55 5 -7 23 -18 24 -62 4z m202 -57 c49 -41 51
-154 5 -189 -21 -15 -35 -17 -69 -12 -64 10 -74 25 -69 107 3 61 7 72 31 93
35 30 68 30 102 1z"/>
<path d="M6750 618 c-32 -17 -51 -37 -67 -68 -28 -55 -29 -82 -3 -136 26 -52
68 -74 143 -74 88 0 155 58 164 141 8 85 -46 146 -138 155 -44 5 -62 1 -99
-18z m130 -38 c27 -27 40 -63 40 -111 0 -51 -43 -99 -87 -99 -95 0 -141 158
-64 217 26 20 88 16 111 -7z"/>
<path d="M7088 616 c-21 -11 -38 -24 -38 -27 0 -3 11 -11 25 -17 24 -11 25
-15 25 -106 0 -86 -2 -96 -21 -106 -11 -7 -18 -15 -14 -18 7 -7 145 -3 158 5
5 3 -7 12 -25 21 -32 17 -33 19 -36 87 -2 38 -1 79 2 91 11 44 108 60 142 23
15 -16 20 -40 22 -104 4 -76 2 -85 -17 -97 -36 -22 -24 -28 59 -28 47 0 80 4
80 10 0 6 -8 10 -18 10 -32 0 -42 22 -42 95 -1 91 -14 146 -41 168 -29 23 -91
22 -141 -4 -33 -17 -42 -18 -49 -7 -5 7 -9 16 -9 21 0 12 -23 6 -62 -17z"/>
<path d="M7556 621 c-87 -58 -98 -182 -21 -250 30 -26 44 -31 86 -31 27 0 64
6 82 14 76 33 92 72 17 42 -62 -24 -106 -21 -136 11 -43 46 -30 62 71 92 50
15 96 30 102 34 17 11 -29 80 -63 96 -38 17 -105 13 -138 -8z m102 -27 c38
-27 28 -50 -30 -70 -29 -9 -59 -19 -67 -22 -11 -4 -13 2 -8 33 11 68 56 94
105 59z"/>
<path d="M8457 616 l-38 -23 25 -17 c25 -16 26 -21 26 -106 0 -79 -2 -91 -20
-102 -35 -22 -22 -28 65 -28 83 0 112 13 60 26 -14 3 -30 14 -35 24 -13 24
-13 121 0 154 9 24 15 26 64 26 45 0 55 3 59 20 3 10 -1 27 -8 36 -14 20 -54
13 -96 -17 l-28 -19 -3 22 c-4 30 -25 31 -71 4z"/>
<path d="M8810 618 c-59 -30 -90 -77 -90 -137 0 -89 56 -141 152 -141 97 0
168 65 168 153 0 119 -117 182 -230 125z m110 -28 c65 -35 72 -173 10 -205
-36 -19 -54 -19 -89 0 -65 33 -74 169 -14 204 23 13 69 14 93 1z"/>
<path d="M9780 618 c-30 -16 -46 -30 -48 -45 -5 -36 41 -31 68 7 12 17 30 30
40 30 38 0 66 -74 38 -98 -7 -5 -29 -13 -48 -17 -104 -22 -147 -79 -102 -135
21 -26 70 -29 126 -9 28 10 39 10 48 1 17 -17 49 -15 76 4 29 20 28 32 -5 36
l-28 3 -3 105 c-2 79 -7 109 -19 122 -23 25 -89 23 -143 -4z m108 -177 c4 -39
-9 -57 -46 -64 -36 -7 -62 9 -62 37 0 27 17 44 57 56 40 12 48 8 51 -29z"/>
<path d="M10595 623 c-45 -23 -64 -43 -58 -59 9 -24 40 -16 72 18 27 29 32 31
56 20 23 -11 26 -17 23 -53 -3 -42 -3 -42 -58 -56 -73 -18 -104 -42 -108 -82
-6 -64 40 -88 124 -64 43 13 59 14 62 5 5 -16 37 -15 72 3 38 20 38 35 0 35
l-30 0 0 103 c0 129 -10 147 -78 147 -26 -1 -60 -8 -77 -17z m93 -190 c-3 -41
-6 -47 -30 -54 -36 -9 -66 -1 -73 21 -9 28 4 47 43 64 59 24 63 22 60 -31z"/>
<path d="M11370 619 c-19 -11 -39 -21 -45 -23 -5 -3 2 -14 18 -26 26 -21 27
-26 27 -106 0 -73 -3 -85 -20 -96 -35 -22 -22 -28 60 -28 81 0 103 12 56 29
-33 13 -36 27 -36 157 0 125 0 125 -60 93z"/>
<path d="M11578 619 c-44 -23 -47 -30 -15 -44 20 -9 22 -17 25 -105 3 -88 1
-95 -20 -112 -22 -17 -21 -18 65 -18 86 0 113 11 60 25 -15 3 -31 12 -35 18
-10 15 -10 159 0 173 13 19 50 34 86 34 53 0 66 -26 66 -133 0 -80 -2 -89 -20
-94 -45 -12 -15 -23 60 -23 84 0 100 8 50 27 l-30 11 0 90 c0 100 5 109 64
119 81 13 106 -18 106 -133 0 -60 -15 -94 -41 -94 -5 0 -9 -4 -9 -10 0 -6 35
-10 85 -10 89 0 105 8 55 27 -30 11 -30 12 -30 85 -1 94 -13 149 -41 171 -28
23 -102 22 -155 -2 -39 -18 -41 -18 -63 0 -31 25 -96 24 -145 -2 -31 -17 -40
-18 -47 -7 -5 7 -9 16 -9 21 0 12 -23 7 -62 -14z"/>
<path d="M12272 620 c-47 -29 -72 -76 -72 -135 0 -90 54 -145 142 -145 51 0
132 37 136 62 3 16 0 16 -40 -2 -24 -11 -57 -20 -75 -20 -35 0 -78 32 -87 66
-6 20 2 25 96 55 56 19 103 39 105 45 2 5 -14 29 -35 52 -36 38 -43 42 -88 42
-31 0 -61 -7 -82 -20z m100 -27 c18 -16 24 -48 11 -56 -5 -3 -32 -12 -60 -20
l-53 -16 0 35 c0 61 60 95 102 57z"/>
</g>
</svg>
